<svg width="1200" height="630" viewBox="0 0 1200 630" xmlns="http://www.w3.org/2000/svg" role="img" aria-label="Gaming RGB Software download Open Graph image">
  <defs>
    <linearGradient id="bgGradient" x1="90" y1="44" x2="1110" y2="600" gradientUnits="userSpaceOnUse">
      <stop offset="0%" stop-color="#020617" />
      <stop offset="58%" stop-color="#111827" />
      <stop offset="100%" stop-color="#0f172a" />
    </linearGradient>
    <linearGradient id="ambientGradient" x1="170" y1="100" x2="1040" y2="544" gradientUnits="userSpaceOnUse">
      <stop offset="0%" stop-color="#f472b6" />
      <stop offset="45%" stop-color="#818cf8" />
      <stop offset="100%" stop-color="#22d3ee" />
    </linearGradient>
    <filter id="softGlow" x="-40%" y="-40%" width="180%" height="180%">
      <feGaussianBlur stdDeviation="28" />
    </filter>
  </defs>

  <rect width="1200" height="630" rx="36" fill="url(#bgGradient)" />
  <circle cx="150" cy="110" r="132" fill="#f472b6" fill-opacity="0.14" filter="url(#softGlow)" />
  <circle cx="1036" cy="114" r="136" fill="#22d3ee" fill-opacity="0.14" filter="url(#softGlow)" />
  <circle cx="936" cy="520" r="150" fill="#818cf8" fill-opacity="0.16" filter="url(#softGlow)" />

  <rect x="40" y="40" width="1120" height="550" rx="30" fill="none" stroke="url(#ambientGradient)" stroke-opacity="0.34" stroke-width="2" />

  <g>
    <rect x="88" y="90" width="74" height="74" rx="20" fill="#020617" />
    <rect x="90" y="92" width="70" height="70" rx="19" fill="none" stroke="url(#ambientGradient)" stroke-width="2" opacity="0.92" />
    <path d="M106 136c0-12.86 10.43-23.29 23.29-23.29h13.52a11.27 11.27 0 0 1 0 22.54h-20.28" fill="none" stroke="url(#ambientGradient)" stroke-width="8.8" stroke-linecap="round" stroke-linejoin="round" />
    <path d="M114 147h33" fill="none" stroke="url(#ambientGradient)" stroke-width="4.8" stroke-linecap="round" opacity="0.96" />
    <circle cx="143" cy="124" r="4" fill="#ffffff" fill-opacity="0.9" />
  </g>

  <text x="188" y="120" fill="#e2e8f0" font-size="24" font-family="Segoe UI, Arial, sans-serif" letter-spacing="3">RELEASE CHANNEL</text>
  <rect x="88" y="188" width="194" height="38" rx="19" fill="#111827" fill-opacity="0.9" stroke="url(#ambientGradient)" stroke-opacity="0.5" />
  <text x="121" y="213" fill="#f8fafc" font-size="18" font-family="Segoe UI, Arial, sans-serif" letter-spacing="2.4">DOWNLOAD PAGE</text>

  <text x="88" y="308" fill="#f8fafc" font-size="70" font-weight="700" font-family="Segoe UI, Arial, sans-serif">Cross-platform builds ready.</text>
  <text x="88" y="382" fill="#cbd5e1" font-size="30" font-family="Segoe UI, Arial, sans-serif">Windows, macOS, and Linux installers routed through a single release destination.</text>

  <g>
    <rect x="744" y="132" width="346" height="320" rx="28" fill="#0b1220" fill-opacity="0.96" stroke="#334155" stroke-opacity="0.78" />

    <rect x="780" y="178" width="274" height="62" rx="18" fill="#0f172a" stroke="#f472b6" stroke-opacity="0.55" />
    <text x="818" y="216" fill="#f8fafc" font-size="30" font-family="Segoe UI, Arial, sans-serif">Windows</text>

    <rect x="780" y="258" width="274" height="62" rx="18" fill="#0f172a" stroke="#818cf8" stroke-opacity="0.55" />
    <text x="818" y="296" fill="#f8fafc" font-size="30" font-family="Segoe UI, Arial, sans-serif">macOS</text>

    <rect x="780" y="338" width="274" height="62" rx="18" fill="#0f172a" stroke="#22d3ee" stroke-opacity="0.55" />
    <text x="818" y="376" fill="#f8fafc" font-size="30" font-family="Segoe UI, Arial, sans-serif">Linux</text>
  </g>

  <text x="88" y="504" fill="#94a3b8" font-size="20" font-family="Segoe UI, Arial, sans-serif">Optimized for page-level previews in social embeds, launch notes, and changelog links.</text>
</svg>
